# Blender v2.79 (sub 0) OBJ File: 'matipboxblend.blend'
# www.blender.org
mtllib compatiblebox.mtl
o box
v -0.500000 -0.500000 0.500000
v 0.500000 -0.500000 0.500000
v -0.500000 0.500000 0.500000
v 0.500000 0.500000 0.500000
v -0.500000 0.500000 -0.500000
v 0.500000 0.500000 -0.500000
v -0.500000 -0.500000 -0.500000
v 0.500000 -0.500000 -0.500000
vt 0.251009 0.657217
vt 0.497104 0.662371
vt 0.251974 0.997379
vt 0.497104 0.997379
vt 0.998948 0.662371
vt 0.750922 0.662371
vt 1.000879 0.333806
vt 0.752852 0.335095
vt 0.250043 0.000087
vt 0.500000 0.000087
vt 0.251974 0.335095
vt 0.496139 0.335095
vt 0.000087 0.337672
vt 0.001052 0.659794
vn 0.0000 -0.0000 1.0000
vn 0.0000 1.0000 0.0000
vn 0.0000 0.0000 -1.0000
vn 0.0000 -1.0000 -0.0000
vn 1.0000 0.0000 0.0000
vn -1.0000 0.0000 0.0000
usemtl None
s 1
f 1/1/1 2/2/1 3/3/1
f 3/3/1 2/2/1 4/4/1
f 3/5/2 4/6/2 5/7/2
f 5/7/2 4/6/2 6/8/2
f 5/9/3 6/10/3 7/11/3
f 7/11/3 6/10/3 8/12/3
f 7/11/4 8/12/4 1/1/4
f 1/1/4 8/12/4 2/2/4
f 2/2/5 8/12/5 4/6/5
f 4/6/5 8/12/5 6/8/5
f 7/11/6 1/1/6 5/13/6
f 5/13/6 1/1/6 3/14/6
